<?xml version="1.0" encoding="UTF-8"?>
<svg width="198px" height="126px" viewBox="0 0 198 126" version="1.1" xmlns="http://www.w3.org/2000/svg" xmlns:xlink="http://www.w3.org/1999/xlink">
    <!-- Generator: Sketch 51.3 (57544) - http://www.bohemiancoding.com/sketch -->
    <title>Big-logo</title>
    <desc>Created with Sketch.</desc>
    <defs>
        <polygon id="path-1" points="29.5 8 55 22.54289 55 51.62867 29.5 66.17156 4 51.62867 4 22.54289"></polygon>
        <filter x="-14.7%" y="-9.5%" width="129.4%" height="125.8%" filterUnits="objectBoundingBox" id="filter-2">
            <feMorphology radius="0.5" operator="dilate" in="SourceAlpha" result="shadowSpreadOuter1"></feMorphology>
            <feOffset dx="0" dy="2" in="shadowSpreadOuter1" result="shadowOffsetOuter1"></feOffset>
            <feMorphology radius="1" operator="erode" in="SourceAlpha" result="shadowInner"></feMorphology>
            <feOffset dx="0" dy="2" in="shadowInner" result="shadowInner"></feOffset>
            <feComposite in="shadowOffsetOuter1" in2="shadowInner" operator="out" result="shadowOffsetOuter1"></feComposite>
            <feGaussianBlur stdDeviation="2" in="shadowOffsetOuter1" result="shadowBlurOuter1"></feGaussianBlur>
            <feColorMatrix values="0 0 0 0 0   0 0 0 0 0   0 0 0 0 0  0 0 0 0.5 0" type="matrix" in="shadowBlurOuter1"></feColorMatrix>
        </filter>
        <filter x="-29.2%" y="-14.3%" width="158.3%" height="146.4%" filterUnits="objectBoundingBox" id="filter-3">
            <feOffset dx="0" dy="3" in="SourceAlpha" result="shadowOffsetOuter1"></feOffset>
            <feGaussianBlur stdDeviation="1.5" in="shadowOffsetOuter1" result="shadowBlurOuter1"></feGaussianBlur>
            <feColorMatrix values="0 0 0 0 0   0 0 0 0 0   0 0 0 0 0  0 0 0 0.5 0" type="matrix" in="shadowBlurOuter1" result="shadowMatrixOuter1"></feColorMatrix>
            <feMerge>
                <feMergeNode in="shadowMatrixOuter1"></feMergeNode>
                <feMergeNode in="SourceGraphic"></feMergeNode>
            </feMerge>
        </filter>
        <filter x="-41.7%" y="-17.9%" width="175.0%" height="175.0%" filterUnits="objectBoundingBox" id="filter-4">
            <feOffset dx="0" dy="5" in="SourceAlpha" result="shadowOffsetOuter1"></feOffset>
            <feGaussianBlur stdDeviation="1.5" in="shadowOffsetOuter1" result="shadowBlurOuter1"></feGaussianBlur>
            <feColorMatrix values="0 0 0 0 0   0 0 0 0 0   0 0 0 0 0  0 0 0 0.5 0" type="matrix" in="shadowBlurOuter1" result="shadowMatrixOuter1"></feColorMatrix>
            <feMerge>
                <feMergeNode in="shadowMatrixOuter1"></feMergeNode>
                <feMergeNode in="SourceGraphic"></feMergeNode>
            </feMerge>
        </filter>
        <polygon id="path-5" points="0.178666667 7.01333333 0.178666667 20.5626667 11.912 27.336 11.912 13.7866667"></polygon>
        <filter x="-47.9%" y="-37.5%" width="230.0%" height="175.0%" filterUnits="objectBoundingBox" id="filter-6">
            <feMorphology radius="0.625" operator="dilate" in="SourceAlpha" result="shadowSpreadOuter1"></feMorphology>
            <feOffset dx="2" dy="0" in="shadowSpreadOuter1" result="shadowOffsetOuter1"></feOffset>
            <feGaussianBlur stdDeviation="2" in="shadowOffsetOuter1" result="shadowBlurOuter1"></feGaussianBlur>
            <feComposite in="shadowBlurOuter1" in2="SourceAlpha" operator="out" result="shadowBlurOuter1"></feComposite>
            <feColorMatrix values="0 0 0 0 0   0 0 0 0 0   0 0 0 0 0  0 0 0 0.5 0" type="matrix" in="shadowBlurOuter1"></feColorMatrix>
        </filter>
        <filter x="-29.2%" y="-14.3%" width="175.0%" height="175.0%" filterUnits="objectBoundingBox" id="filter-7">
            <feOffset dx="0" dy="3" in="SourceAlpha" result="shadowOffsetOuter1"></feOffset>
            <feGaussianBlur stdDeviation="1.5" in="shadowOffsetOuter1" result="shadowBlurOuter1"></feGaussianBlur>
            <feColorMatrix values="0 0 0 0 0   0 0 0 0 0   0 0 0 0 0  0 0 0 0.5 0" type="matrix" in="shadowBlurOuter1" result="shadowMatrixOuter1"></feColorMatrix>
            <feMerge>
                <feMergeNode in="shadowMatrixOuter1"></feMergeNode>
                <feMergeNode in="SourceGraphic"></feMergeNode>
            </feMerge>
        </filter>
        <polygon id="path-8" points="23.912 7.01333333 12.0586667 13.7866667 12.0586667 27.336 23.912 20.5626667"></polygon>
        <filter x="-72.8%" y="-22.8%" width="245.5%" height="184.9%" filterUnits="objectBoundingBox" id="filter-9">
            <feMorphology radius="0.625" operator="dilate" in="SourceAlpha" result="shadowSpreadOuter1"></feMorphology>
            <feOffset dx="0" dy="4" in="shadowSpreadOuter1" result="shadowOffsetOuter1"></feOffset>
            <feGaussianBlur stdDeviation="2" in="shadowOffsetOuter1" result="shadowBlurOuter1"></feGaussianBlur>
            <feComposite in="shadowBlurOuter1" in2="SourceAlpha" operator="out" result="shadowBlurOuter1"></feComposite>
            <feColorMatrix values="0 0 0 0 0   0 0 0 0 0   0 0 0 0 0  0 0 0 0.5 0" type="matrix" in="shadowBlurOuter1"></feColorMatrix>
        </filter>
        <polygon id="path-10" points="50.4112318 0 100.822464 28.75 100.822464 86.25 50.4112318 115 2.57571742e-14 86.25 -6.21724894e-15 28.75"></polygon>
        <filter x="-8.9%" y="-4.3%" width="117.9%" height="115.7%" filterUnits="objectBoundingBox" id="filter-11">
            <feMorphology radius="1" operator="dilate" in="SourceAlpha" result="shadowSpreadOuter1"></feMorphology>
            <feOffset dx="0" dy="4" in="shadowSpreadOuter1" result="shadowOffsetOuter1"></feOffset>
            <feMorphology radius="1" operator="erode" in="SourceAlpha" result="shadowInner"></feMorphology>
            <feOffset dx="0" dy="4" in="shadowInner" result="shadowInner"></feOffset>
            <feComposite in="shadowOffsetOuter1" in2="shadowInner" operator="out" result="shadowOffsetOuter1"></feComposite>
            <feGaussianBlur stdDeviation="2" in="shadowOffsetOuter1" result="shadowBlurOuter1"></feGaussianBlur>
            <feColorMatrix values="0 0 0 0 0   0 0 0 0 0   0 0 0 0 0  0 0 0 0.5 0" type="matrix" in="shadowBlurOuter1"></feColorMatrix>
        </filter>
    </defs>
    <g id="Logo-experiments" stroke="none" stroke-width="1" fill="none" fill-rule="evenodd">
        <g id="Logo-and-explorations-v2" transform="translate(-272.000000, -215.000000)">
            <g id="Big-logo" transform="translate(277.000000, 217.000000)">
                <g id="Logo" fill-rule="nonzero">
                    <g id="Logo-inner" transform="translate(20.000000, 24.000000)">
                        <g id="Polygon">
                            <use fill="black" fill-opacity="1" filter="url(#filter-2)" xlink:href="#path-1"></use>
                            <use stroke="#B1D4E5" stroke-width="1" xlink:href="#path-1"></use>
                        </g>
                        <g id="Cube-element" filter="url(#filter-3)" transform="translate(17.500000, 0.000000)" fill="#123962" stroke="#B1D4E5" stroke-width="1.25">
                            <polygon id="Shape" points="12.0586667 0.154666667 0.266666667 6.96266667 12.0586667 13.7706667 23.8506667 6.96266667"></polygon>
                            <polygon id="Shape" points="0.178666667 7.01333333 0.178666667 20.5626667 11.912 27.336 11.912 13.7866667"></polygon>
                            <polygon id="Shape" points="23.912 7.01333333 12.0586667 13.7866667 12.0586667 27.336 23.912 20.5626667"></polygon>
                        </g>
                        <g id="Cube-element" filter="url(#filter-4)" transform="translate(36.000000, 31.000000)">
                            <polygon id="Shape" stroke="#B1D4E5" stroke-width="1.25" fill="#123962" points="12.0586667 0.154666667 0.266666667 6.96266667 12.0586667 13.7706667 23.8506667 6.96266667"></polygon>
                            <g id="Shape">
                                <use fill="black" fill-opacity="1" filter="url(#filter-6)" xlink:href="#path-5"></use>
                                <use stroke="#B1D4E5" stroke-width="1.25" fill="#123962" xlink:href="#path-5"></use>
                            </g>
                            <polygon id="Shape" stroke="#B1D4E5" stroke-width="1.25" fill="#123962" points="23.912 7.01333333 12.0586667 13.7866667 12.0586667 27.336 23.912 20.5626667"></polygon>
                        </g>
                        <g id="Cube-element" filter="url(#filter-7)" transform="translate(0.000000, 31.000000)">
                            <polygon id="Shape" stroke="#B1D4E5" stroke-width="1.25" fill="#123962" points="12.0586667 0.154666667 0.266666667 6.96266667 12.0586667 13.7706667 23.8506667 6.96266667"></polygon>
                            <polygon id="Shape" stroke="#B1D4E5" stroke-width="1.25" fill="#123962" points="0.178666667 7.01333333 0.178666667 20.5626667 11.912 27.336 11.912 13.7866667"></polygon>
                            <g id="Shape">
                                <use fill="black" fill-opacity="1" filter="url(#filter-9)" xlink:href="#path-8"></use>
                                <use stroke="#B1D4E5" stroke-width="1.25" fill="#123962" xlink:href="#path-8"></use>
                            </g>
                        </g>
                    </g>
                    <g id="Polygon">
                        <use fill="black" fill-opacity="1" filter="url(#filter-11)" xlink:href="#path-10"></use>
                        <use stroke="#B1D4E5" stroke-width="2" xlink:href="#path-10"></use>
                    </g>
                </g>
                <path d="M129.448,63 L119.224,63 L119.224,48 L129.448,48 L129.448,50.472 L122.104,50.472 L122.104,54.24 L128.128,54.24 L128.128,56.712 L122.104,56.712 L122.104,60.528 L129.448,60.528 L129.448,63 Z M141.52,63 L138.448,63 L136.024,59.064 L133.624,63 L130.504,63 L134.32,57.336 L130.648,51.936 L133.72,51.936 L136,55.512 L138.208,51.936 L141.304,51.936 L137.728,57.288 L141.52,63 Z M148.888,61.728 L148.792,61.728 C148,62.688 147.04,63.36 145.672,63.36 C143.68,63.36 142.24,61.992 142.24,60.24 C142.24,58.2 143.728,56.472 148.792,56.304 L148.792,56.04 C148.792,54.552 148.168,53.928 146.584,53.928 C145.456,53.928 144.088,54.432 142.912,55.104 L142.336,52.872 C143.416,52.2 145.144,51.576 146.968,51.576 C150.376,51.576 151.696,53.088 151.624,56.136 L151.624,60.096 C151.624,60.936 151.768,61.056 152.608,61.104 L152.392,63.24 C150.28,63.48 149.296,62.832 148.888,61.728 Z M148.792,60.336 L148.792,57.792 C146.032,58.128 145.024,58.68 145.024,59.856 C145.024,60.696 145.672,61.296 146.68,61.296 C147.568,61.296 148.288,60.888 148.792,60.336 Z M157.36,63 L154.528,63 L154.528,46.968 L157.36,46.584 L157.36,63 Z M166.864,62.928 C166.024,63.216 165.256,63.36 164.296,63.36 C161.824,63.36 160.528,62.28 160.624,59.616 L160.792,54.408 L159.064,54.216 L159.136,52.416 L160.864,51.864 L160.912,49.416 L163.648,49.416 L163.6,52.008 L166.72,52.008 L166.648,54.336 L163.432,54.336 L163.288,59.448 C163.264,60.48 163.792,60.96 164.752,60.96 C165.328,60.96 165.904,60.816 166.48,60.624 L166.864,62.928 Z M179.656,57.456 C179.656,61.08 177.16,63.36 173.92,63.36 C170.68,63.36 168.328,61.152 168.328,57.48 C168.328,53.832 170.8,51.552 174.064,51.552 C177.328,51.552 179.656,53.808 179.656,57.456 Z M176.848,57.48 C176.848,55.344 175.792,53.832 173.968,53.832 C172.12,53.832 171.112,55.32 171.112,57.456 C171.112,59.568 172.168,61.056 174.016,61.056 C175.84,61.056 176.848,59.616 176.848,57.48 Z M192.064,63 L189.232,63 L189.232,56.256 C189.232,54.624 188.584,54.072 187.312,54.072 C186.328,54.072 185.416,54.576 184.864,55.104 L184.864,63 L182.032,63 L182.032,51.984 L184.864,51.6 C184.864,51.6 184.864,53.28 184.864,53.352 C185.848,52.272 187.168,51.576 188.512,51.576 C190.744,51.576 192.064,53.016 192.064,55.392 L192.064,63 Z" id="Exalton" fill="#B1D4E5"></path>
            </g>
        </g>
    </g>
</svg>